<mxfile host="Electron" agent="Mozilla/5.0 (Windows NT 10.0; Win64; x64) AppleWebKit/537.36 (KHTML, like Gecko) draw.io/24.7.17 Chrome/128.0.6613.36 Electron/32.0.1 Safari/537.36" version="24.7.17">
  <diagram name="第 1 页" id="fJ9_ziLYc-0MxBPfx35V">
    <mxGraphModel dx="1050" dy="629" grid="1" gridSize="10" guides="1" tooltips="1" connect="1" arrows="1" fold="1" page="1" pageScale="1" pageWidth="827" pageHeight="1169" math="0" shadow="0">
      <root>
        <mxCell id="0" />
        <mxCell id="1" parent="0" />
        <mxCell id="s8qnYITX3BPXn4tZBuTm-11" value="&lt;font style=&quot;font-size: 20px;&quot;&gt;RTT控制块&lt;/font&gt;" style="rounded=1;whiteSpace=wrap;html=1;fontSize=26;fillColor=#f5f5f5;strokeColor=#666666;shadow=1;fontColor=#333333;" parent="1" vertex="1">
          <mxGeometry x="280" y="230" width="117.5" height="57" as="geometry" />
        </mxCell>
        <mxCell id="s8qnYITX3BPXn4tZBuTm-12" value="&lt;font style=&quot;font-size: 20px;&quot;&gt;MCU程序&lt;/font&gt;" style="rounded=1;whiteSpace=wrap;html=1;fontSize=26;fillColor=#f5f5f5;strokeColor=#666666;shadow=1;fontColor=#333333;" parent="1" vertex="1">
          <mxGeometry x="30" y="148" width="147.5" height="56" as="geometry" />
        </mxCell>
        <mxCell id="LMCBOfTPQR8uXLN5Ptqf-7" value="" style="endArrow=classic;startArrow=classic;html=1;rounded=0;entryX=0;entryY=0.5;entryDx=0;entryDy=0;" parent="1" edge="1" target="s8qnYITX3BPXn4tZBuTm-11">
          <mxGeometry width="50" height="50" relative="1" as="geometry">
            <mxPoint x="177.5" y="178.5" as="sourcePoint" />
            <mxPoint x="282.5" y="178.5" as="targetPoint" />
          </mxGeometry>
        </mxCell>
        <mxCell id="LMCBOfTPQR8uXLN5Ptqf-8" value="&lt;font style=&quot;font-size: 14px;&quot;&gt;写入RTT Buffer&lt;/font&gt;" style="text;html=1;align=center;verticalAlign=middle;resizable=0;points=[];autosize=1;strokeColor=none;fillColor=none;" parent="1" vertex="1">
          <mxGeometry x="200" y="174.5" width="120" height="30" as="geometry" />
        </mxCell>
        <mxCell id="P234CIhxf_j9byQGwakH-1" value="&lt;font style=&quot;font-size: 20px;&quot;&gt;MicroLink&lt;/font&gt;" style="rounded=1;whiteSpace=wrap;html=1;fontSize=26;fillColor=#f5f5f5;strokeColor=#666666;shadow=1;fontColor=#333333;" vertex="1" parent="1">
          <mxGeometry x="500" y="147.5" width="117.5" height="57" as="geometry" />
        </mxCell>
        <mxCell id="P234CIhxf_j9byQGwakH-2" value="" style="endArrow=classic;startArrow=classic;html=1;rounded=0;entryX=-0.024;entryY=0.626;entryDx=0;entryDy=0;entryPerimeter=0;" edge="1" parent="1" target="P234CIhxf_j9byQGwakH-1">
          <mxGeometry width="50" height="50" relative="1" as="geometry">
            <mxPoint x="400" y="250" as="sourcePoint" />
            <mxPoint x="535.5" y="180.25" as="targetPoint" />
          </mxGeometry>
        </mxCell>
        <mxCell id="P234CIhxf_j9byQGwakH-3" value="&lt;font style=&quot;font-size: 14px;&quot;&gt;SWD物理访问&lt;/font&gt;" style="text;html=1;align=center;verticalAlign=middle;resizable=0;points=[];autosize=1;strokeColor=none;fillColor=none;" vertex="1" parent="1">
          <mxGeometry x="370" y="174" width="110" height="30" as="geometry" />
        </mxCell>
        <mxCell id="P234CIhxf_j9byQGwakH-4" value="&lt;font style=&quot;font-size: 20px;&quot;&gt;PC串口工具&lt;/font&gt;" style="rounded=1;whiteSpace=wrap;html=1;fontSize=26;fillColor=#f5f5f5;strokeColor=#666666;shadow=1;fontColor=#333333;" vertex="1" parent="1">
          <mxGeometry x="705" y="230" width="117.5" height="57" as="geometry" />
        </mxCell>
        <mxCell id="P234CIhxf_j9byQGwakH-5" value="" style="endArrow=classic;startArrow=classic;html=1;rounded=0;entryX=0;entryY=0.5;entryDx=0;entryDy=0;" edge="1" parent="1" target="P234CIhxf_j9byQGwakH-4">
          <mxGeometry width="50" height="50" relative="1" as="geometry">
            <mxPoint x="617.5" y="179.75" as="sourcePoint" />
            <mxPoint x="753" y="110" as="targetPoint" />
          </mxGeometry>
        </mxCell>
        <mxCell id="P234CIhxf_j9byQGwakH-6" value="&lt;font style=&quot;font-size: 14px;&quot;&gt;映射为USB CDC串口&lt;/font&gt;" style="text;html=1;align=center;verticalAlign=middle;resizable=0;points=[];autosize=1;strokeColor=none;fillColor=none;" vertex="1" parent="1">
          <mxGeometry x="655" y="174.5" width="160" height="30" as="geometry" />
        </mxCell>
      </root>
    </mxGraphModel>
  </diagram>
</mxfile>
